<svg version="1.0" xmlns="http://www.w3.org/2000/svg" xmlns:xlink="http://www.w3.org/1999/xlink" viewBox="0 0 100 100"><svg xmlns="http://www.w3.org/2000/svg" xmlns:xlink="http://www.w3.org/1999/xlink" width="100" height="100" viewBox="0 0 2000 2000" shape-rendering="crispEdges"><path fill="#fff" d="M0 0h2000v2000H0z"/><path d="M840 200h64v64h-64zm320 0h64v64h-64zm-448 64h64v64h-64zm64 0h64v64h-64zm64 0h64v64h-64zm192 0h64v64h-64zm64 0h64v64h-64zm128 0h64v64h-64zm-512 64h64v64h-64zm448 0h64v64h-64zm64 0h64v64h-64zm-448 64h64v64h-64zm192 0h64v64h-64zm192 0h64v64h-64zm64 0h64v64h-64zm-512 64h64v64h-64zm64 0h64v64h-64zm64 0h64v64h-64zm128 0h64v64h-64zm64 0h64v64h-64zm64 0h64v64h-64zm128 0h64v64h-64zm-512 64h64v64h-64zm128 0h64v64h-64zm128 0h64v64h-64zm192 0h64v64h-64zm-448 64h64v64h-64zm128 0h64v64h-64zm128 0h64v64h-64zm128 0h64v64h-64zm128 0h64v64h-64zm-512 64h64v64h-64zm128 0h64v64h-64zm64 0h64v64h-64zm-704 64h64v64h-64zm64 0h64v64h-64zm128 0h64v64h-64zm192 0h64v64h-64zm64 0h64v64h-64zm256 0h64v64h-64zm64 0h64v64h-64zm64 0h64v64h-64zm192 0h64v64h-64zm128 0h64v64h-64zm64 0h64v64h-64zm64 0h64v64h-64zm128 0h64v64h-64zm64 0h64v64h-64zM200 776h64v64h-64zm64 0h64v64h-64zm64 0h64v64h-64zm128 0h64v64h-64zm192 0h64v64h-64zm64 0h64v64h-64zm64 0h64v64h-64zm128 0h64v64h-64zm64 0h64v64h-64zm64 0h64v64h-64zm128 0h64v64h-64zm64 0h64v64h-64zm128 0h64v64h-64zm128 0h64v64h-64zm192 0h64v64h-64zM200 840h64v64h-64zm192 0h64v64h-64zm192 0h64v64h-64zm320 0h64v64h-64zm64 0h64v64h-64zm320 0h64v64h-64zm64 0h64v64h-64zm64 0h64v64h-64zm128 0h64v64h-64zm64 0h64v64h-64zM200 904h64v64h-64zm64 0h64v64h-64zm64 0h64v64h-64zm64 0h64v64h-64zm64 0h64v64h-64zm256 0h64v64h-64zm64 0h64v64h-64zm64 0h64v64h-64zm64 0h64v64h-64zm64 0h64v64h-64zm64 0h64v64h-64zm192 0h64v64h-64zm64 0h64v64h-64zm64 0h64v64h-64zm64 0h64v64h-64zm64 0h64v64h-64zm256 0h64v64h-64zM456 968h64v64h-64zm64 0h64v64h-64zm64 0h64v64h-64zm64 0h64v64h-64zm192 0h64v64h-64zm64 0h64v64h-64zm128 0h64v64h-64zm64 0h64v64h-64zm128 0h64v64h-64zm128 0h64v64h-64zm64 0h64v64h-64zm192 0h64v64h-64zm64 0h64v64h-64zm64 0h64v64h-64zm-1472 64h64v64h-64zm192 0h64v64h-64zm64 0h64v64h-64zm128 0h64v64h-64zm128 0h64v64h-64zm128 0h64v64h-64zm192 0h64v64h-64zm320 0h64v64h-64zm64 0h64v64h-64zm128 0h64v64h-64zm64 0h64v64h-64zm64 0h64v64h-64zm-1536 64h64v64h-64zm192 0h64v64h-64zm128 0h64v64h-64zm64 0h64v64h-64zm192 0h64v64h-64zm128 0h64v64h-64zm128 0h64v64h-64zm128 0h64v64h-64zm64 0h64v64h-64zm128 0h64v64h-64zm128 0h64v64h-64zm64 0h64v64h-64zm192 0h64v64h-64zm-1472 64h64v64h-64zm192 0h64v64h-64zm320 0h64v64h-64zm64 0h64v64h-64zm64 0h64v64h-64zm128 0h64v64h-64zm64 0h64v64h-64zm256 0h64v64h-64zm64 0h64v64h-64zm-1216 64h64v64h-64zm64 0h64v64h-64zm64 0h64v64h-64zm256 0h64v64h-64zm128 0h64v64h-64zm128 0h64v64h-64zm128 0h64v64h-64zm64 0h64v64h-64zm192 0h64v64h-64zm64 0h64v64h-64zm64 0h64v64h-64zm64 0h64v64h-64zm64 0h64v64h-64zm256 0h64v64h-64zm-1024 64h64v64h-64zm128 0h64v64h-64zm128 0h64v64h-64zm64 0h64v64h-64zm64 0h64v64h-64zm128 0h64v64h-64zm256 0h64v64h-64zm-768 64h64v64h-64zm64 0h64v64h-64zm64 0h64v64h-64zm64 0h64v64h-64zm64 0h64v64h-64zm192 0h64v64h-64zm64 0h64v64h-64zm128 0h64v64h-64zm128 0h64v64h-64zm64 0h64v64h-64zm128 0h64v64h-64zm64 0h64v64h-64zm-896 64h64v64h-64zm128 0h64v64h-64zm256 0h64v64h-64zm256 0h64v64h-64zm64 0h64v64h-64zm64 0h64v64h-64zm64 0h64v64h-64zm64 0h64v64h-64zm-896 64h64v64h-64zm128 0h64v64h-64zm64 0h64v64h-64zm128 0h64v64h-64zm64 0h64v64h-64zm64 0h64v64h-64zm64 0h64v64h-64zm64 0h64v64h-64zm64 0h64v64h-64zm128 0h64v64h-64zm64 0h64v64h-64zm-960 64h64v64h-64zm192 0h64v64h-64zm128 0h64v64h-64zm128 0h64v64h-64zm64 0h64v64h-64zm64 0h64v64h-64zm128 0h64v64h-64zm64 0h64v64h-64zm-704 64h64v64h-64zm192 0h64v64h-64zm64 0h64v64h-64zm128 0h64v64h-64zm256 0h64v64h-64zm128 0h64v64h-64zm64 0h64v64h-64zm128 0h64v64h-64zm-1024 64h64v64h-64zm128 0h64v64h-64zm192 0h64v64h-64zm192 0h64v64h-64zm64 0h64v64h-64zm256 0h64v64h-64zm128 0h64v64h-64zm64 0h64v64h-64zm-1024 64h64v64h-64zm256 0h64v64h-64zm64 0h64v64h-64zm64 0h64v64h-64zm128 0h64v64h-64zm256 0h64v64h-64zm64 0h64v64h-64zm128 0h64v64h-64zm64 0h64v64h-64z"/><svg x="200" y="200" viewBox="0 0 700 700" width="448" height="448" shape-rendering="auto"><path d="M21.2-.1C9.5-.1-.1 9.5-.1 21.2v657.6c0 11.7 9.5 21.3 21.3 21.3h657.6c11.7 0 21.3-9.5 21.3-21.3V21.2c0-11.7-9.5-21.3-21.3-21.3H21.2zM600 200v387.8c0 6.8-5.5 12.2-12.2 12.2H112.2c-6.8 0-12.2-5.5-12.2-12.2V112.2c0-6.8 5.5-12.2 12.2-12.2h475.6c6.8 0 12.2 5.5 12.2 12.2V200z"/></svg><svg x="200" y="200" viewBox="0 0 700 700" width="448" height="448" shape-rendering="auto"><path d="M500 400V221.2c0-11.7-9.5-21.3-21.3-21.3H221.2c-11.7 0-21.3 9.5-21.3 21.3v257.6c0 11.7 9.5 21.3 21.3 21.3h257.5c11.7 0 21.3-9.5 21.3-21.3V400z"/></svg><svg x="1352" y="200" viewBox="0 0 700 700" width="448" height="448" shape-rendering="auto"><path d="M21.2-.1C9.5-.1-.1 9.5-.1 21.2v657.6c0 11.7 9.5 21.3 21.3 21.3h657.6c11.7 0 21.3-9.5 21.3-21.3V21.2c0-11.7-9.5-21.3-21.3-21.3H21.2zM600 200v387.8c0 6.8-5.5 12.2-12.2 12.2H112.2c-6.8 0-12.2-5.5-12.2-12.2V112.2c0-6.8 5.5-12.2 12.2-12.2h475.6c6.8 0 12.2 5.5 12.2 12.2V200z"/></svg><svg x="1352" y="200" viewBox="0 0 700 700" width="448" height="448" shape-rendering="auto"><path d="M500 400V221.2c0-11.7-9.5-21.3-21.3-21.3H221.2c-11.7 0-21.3 9.5-21.3 21.3v257.6c0 11.7 9.5 21.3 21.3 21.3h257.5c11.7 0 21.3-9.5 21.3-21.3V400z"/></svg><svg x="200" y="1352" viewBox="0 0 700 700" width="448" height="448" shape-rendering="auto"><path d="M21.2-.1C9.5-.1-.1 9.5-.1 21.2v657.6c0 11.7 9.5 21.3 21.3 21.3h657.6c11.7 0 21.3-9.5 21.3-21.3V21.2c0-11.7-9.5-21.3-21.3-21.3H21.2zM600 200v387.8c0 6.8-5.5 12.2-12.2 12.2H112.2c-6.8 0-12.2-5.5-12.2-12.2V112.2c0-6.8 5.5-12.2 12.2-12.2h475.6c6.8 0 12.2 5.5 12.2 12.2V200z"/></svg><svg x="200" y="1352" viewBox="0 0 700 700" width="448" height="448" shape-rendering="auto"><path d="M500 400V221.2c0-11.7-9.5-21.3-21.3-21.3H221.2c-11.7 0-21.3 9.5-21.3 21.3v257.6c0 11.7 9.5 21.3 21.3 21.3h257.5c11.7 0 21.3-9.5 21.3-21.3V400z"/></svg></svg></svg>